# xmcd
#
# Track frame offsets:
# 150
# 16094
# 31186
# 50243
# 68160
# 85333
# 103957
# 119980
# 139464
# 156186
# 174562
# 188885
# 205280
#
# Disc length: 2968 seconds
#
#
# Revision: 0
# Processed by: cddbd v1.5.2PL0 Copyright (c) Steve Scherf et al.
# Submitted via: FreeRIP 2.945 
#
DISCID=c30b960d
DTITLE=ChocQuibTown - Oro
DYEAR=2008
DGENRE=Hip-Hop
TTITLE0=Te saco a corré
TTITLE1=Los tenis
TTITLE2=La calle o la casa
TTITLE3=infiel
TTITLE4=Mi música
TTITLE5=Prietos
TTITLE6=El bombo (tóquemen el bombo)
TTITLE7=De donde vengo yo
TTITLE8=Move
TTITLE9=Rumba sin pelea
TTITLE10=Son berejú
TTITLE11=El tren
TTITLE12=Oro
EXTD=
EXTT0=
EXTT1=
EXTT2=
EXTT3=
EXTT4=
EXTT5=
EXTT6=
EXTT7=
EXTT8=
EXTT9=
EXTT10=
EXTT11=
EXTT12=
PLAYORDER=
